<svg width="1920" height="960" viewBox="0 0 1920 960" fill="none" xmlns="http://www.w3.org/2000/svg">
<g clip-path="url(#clip0_241_22365)">
<rect width="1920" height="960" rx="20" fill="#02021C"/>
<g opacity="0.2">
<path d="M1229.31 1268.31C1635.61 818.73 1234.93 728.269 983.804 739.235C732.219 754.907 550.522 674.521 491.122 632.369C-554.329 -187.786 -121.117 2712.62 265.254 1745.38C651.625 778.132 721.42 1830.28 1229.31 1268.31Z" stroke="#ECA2B4" stroke-width="2.73968"/>
<path d="M508.728 1227.11C636.18 1086.08 510.498 1057.7 431.726 1061.15C352.811 1066.06 295.818 1040.85 277.186 1027.63C-50.7351 770.36 85.1244 1680.19 206.328 1376.77C327.531 1073.35 349.413 1403.4 508.728 1227.11Z" stroke="#ECA2B4" stroke-width="2.73968"/>
<path d="M553.765 1229.68C698.645 1069.37 555.776 1037.11 466.231 1041.03C376.524 1046.62 311.738 1017.95 290.558 1002.92C-82.2094 710.475 72.2347 1744.72 210.011 1399.81C347.787 1054.9 372.664 1430.08 553.765 1229.68Z" stroke="#ECA2B4" stroke-width="2.73968"/>
<path d="M598.8 1232.26C761.109 1052.66 601.053 1016.52 500.736 1020.91C400.237 1027.17 327.656 995.058 303.928 978.22C-113.685 650.592 59.3441 1809.25 213.693 1422.85C368.042 1036.45 395.914 1456.76 598.8 1232.26Z" stroke="#ECA2B4" stroke-width="2.73968"/>
<path d="M643.837 1234.83C823.575 1035.95 646.331 995.933 535.241 1000.79C423.95 1007.72 343.576 972.162 317.3 953.515C-145.158 590.707 46.4548 1873.77 217.377 1445.88C388.299 1018 419.165 1483.44 643.837 1234.83Z" stroke="#ECA2B4" stroke-width="2.73968"/>
<path d="M688.874 1237.41C886.04 1019.24 691.609 975.343 569.747 980.667C447.664 988.274 359.496 949.266 330.672 928.811C-176.632 530.822 33.5655 1938.3 221.061 1468.92C408.556 999.544 442.417 1510.12 688.874 1237.41Z" stroke="#ECA2B4" stroke-width="2.73968"/>
<path d="M733.908 1239.98C948.503 1002.53 736.884 954.755 604.25 960.549C471.375 968.828 375.413 926.372 344.041 904.109C-208.109 470.939 20.6735 2002.83 224.742 1491.96C428.81 981.095 465.665 1536.8 733.908 1239.98Z" stroke="#ECA2B4" stroke-width="2.73968"/>
<path d="M778.946 1242.56C1010.97 985.821 782.162 934.165 638.756 940.429C495.09 949.38 391.333 903.476 357.413 879.405C-239.582 411.055 7.78461 2067.35 228.426 1515C449.067 962.643 488.917 1563.48 778.946 1242.56Z" stroke="#ECA2B4" stroke-width="2.73968"/>
<path d="M823.982 1245.13C1073.43 969.111 827.44 913.574 673.261 920.309C518.803 929.932 407.252 880.579 370.784 854.7C-271.056 351.17 -5.10495 2131.88 232.109 1538.04C469.323 944.191 512.168 1590.16 823.982 1245.13Z" stroke="#ECA2B4" stroke-width="2.73968"/>
<path d="M869.017 1247.71C1135.9 952.403 872.716 892.986 707.765 900.19C542.515 910.485 423.17 857.685 384.154 829.998C-302.532 291.286 -17.9962 2196.41 235.791 1561.07C489.578 925.741 535.417 1616.84 869.017 1247.71Z" stroke="#ECA2B4" stroke-width="2.73968"/>
<path d="M914.054 1250.28C1198.36 935.693 917.994 872.396 742.271 880.07C566.229 891.038 439.09 834.789 397.526 805.293C-334.006 231.402 -30.8854 2260.93 239.475 1584.11C509.835 907.289 558.668 1643.52 914.054 1250.28Z" stroke="#ECA2B4" stroke-width="2.73968"/>
<path d="M959.091 1252.86C1260.83 918.983 963.272 851.805 776.777 859.95C589.943 871.589 455.01 811.893 410.898 780.589C-365.48 171.517 -43.7746 2325.46 243.159 1607.15C530.092 888.837 581.92 1670.2 959.091 1252.86Z" stroke="#ECA2B4" stroke-width="2.73968"/>
<path d="M1004.13 1255.43C1323.29 902.275 1008.55 831.217 811.281 839.832C613.655 852.143 470.928 788.998 424.268 755.887C-396.955 111.634 -56.6652 2389.99 246.841 1630.19C550.347 870.387 605.169 1696.88 1004.13 1255.43Z" stroke="#ECA2B4" stroke-width="2.73968"/>
<path d="M1049.16 1258.01C1385.76 885.566 1053.83 810.627 845.786 819.712C637.368 832.696 486.847 766.102 437.639 731.183C-428.429 51.7495 -69.5554 2454.51 250.524 1653.22C570.603 851.935 628.42 1723.56 1049.16 1258.01Z" stroke="#ECA2B4" stroke-width="2.73968"/>
<path d="M1094.2 1260.58C1448.22 868.857 1099.1 790.037 880.291 799.592C661.082 813.248 502.767 743.207 451.011 706.479C-459.903 -8.13476 -82.4449 2519.04 254.207 1676.26C590.859 833.484 651.671 1750.23 1094.2 1260.58Z" stroke="#ECA2B4" stroke-width="2.73968"/>
<path d="M1139.24 1263.15C1510.69 852.147 1144.38 769.446 914.796 779.472C684.795 793.8 518.686 720.31 464.382 681.774C-491.378 -68.0196 -95.3347 2583.57 257.89 1699.3C611.116 815.032 674.922 1776.91 1139.24 1263.15Z" stroke="#ECA2B4" stroke-width="2.73968"/>
<path d="M1184.27 1265.73C1573.15 835.439 1189.66 748.858 949.301 759.354C708.508 774.354 534.605 697.416 477.753 657.072C-522.853 -127.902 -108.225 2648.1 261.573 1722.34C631.371 796.582 698.172 1803.59 1184.27 1265.73Z" stroke="#ECA2B4" stroke-width="2.73968"/>
</g>
<g opacity="0.6">
<path opacity="0.0512" d="M1675.06 1518.01C2083.72 1315.25 2599.8 1160.79 2477.22 643.439C2206.09 -500.858 1143.36 -154.315 1298.09 171.076C1585.65 775.828 1303.2 536.487 981.664 1121.51C660.126 1706.54 1164.23 1771.45 1675.06 1518.01Z" stroke="#D6375D" stroke-width="3"/>
<path opacity="0.0925" d="M1666.09 1484.31C2068.84 1292.33 2575.91 1149.23 2464.01 641.425C2216.5 -481.776 1171.91 -159.268 1318.2 161.32C1590.09 757.147 1317.57 518.738 994.121 1085.89C670.672 1653.04 1162.64 1724.28 1666.09 1484.31Z" stroke="#D6375D" stroke-width="3"/>
<path opacity="0.1338" d="M1657.69 1451.21C2054.31 1269.78 2552.12 1137.72 2450.57 639.655C2225.95 -461.995 1199.99 -162.864 1338.04 152.738C1594.61 739.299 1331.92 502.076 1007.04 1051.43C682.162 1600.79 1161.92 1678 1657.69 1451.21Z" stroke="#D6375D" stroke-width="3"/>
<path opacity="0.175" d="M1649.86 1418.73C2040.11 1247.59 2528.45 1126.25 2436.91 638.127C2234.44 -441.536 1227.58 -165.112 1357.58 145.327C1599.2 722.29 1346.22 486.501 1020.39 1018.17C694.565 1549.84 1162.05 1632.65 1649.86 1418.73Z" stroke="#D6375D" stroke-width="3"/>
<path opacity="0.2163" d="M1642.57 1386.87C2026.23 1225.79 2504.9 1114.83 2423.03 636.833C2241.96 -420.425 1254.64 -166.031 1376.8 139.07C1603.82 706.114 1360.46 472.005 1034.15 986.09C707.849 1500.18 1163.01 1588.23 1642.57 1386.87Z" stroke="#D6375D" stroke-width="3"/>
<path opacity="0.2575" d="M1635.82 1355.65C2012.66 1204.36 2481.45 1103.45 2408.91 635.768C2248.48 -398.685 1281.16 -165.634 1395.66 133.961C1608.47 690.772 1374.6 458.586 1048.29 955.21C721.981 1451.83 1164.77 1544.75 1635.82 1355.65Z" stroke="#D6375D" stroke-width="3"/>
<path opacity="0.2988" d="M1629.58 1325.07C1999.4 1183.33 2458.11 1092.13 2394.56 634.926C2254 -376.34 1307.09 -163.938 1414.15 129.988C1613.13 676.262 1388.63 446.239 1062.78 925.531C736.932 1404.82 1167.31 1502.24 1629.58 1325.07Z" stroke="#D6375D" stroke-width="3"/>
<path opacity="0.34" d="M1623.84 1295.15C1986.43 1162.69 2434.88 1080.85 2379.97 634.299C2258.51 -353.417 1332.42 -160.961 1432.24 127.137C1617.77 662.58 1402.51 434.956 1077.59 897.057C752.666 1359.16 1170.6 1460.72 1623.84 1295.15Z" stroke="#D6375D" stroke-width="3"/>
<path opacity="0.3812" d="M1618.58 1265.89C1973.75 1142.45 2411.75 1069.64 2365.13 633.884C2262 -329.938 1357.11 -156.717 1449.91 125.4C1622.38 649.727 1416.23 424.735 1092.69 869.797C769.152 1314.86 1174.62 1420.18 1618.58 1265.89Z" stroke="#D6375D" stroke-width="3"/>
<path opacity="0.4225" d="M1613.79 1237.31C1961.34 1122.63 2388.73 1058.48 2350.03 633.674C2264.45 -305.928 1381.14 -151.226 1467.12 124.762C1626.94 637.698 1429.75 415.567 1108.05 843.751C786.355 1271.93 1179.35 1380.66 1613.79 1237.31Z" stroke="#D6375D" stroke-width="3"/>
<path opacity="0.4638" d="M1609.45 1209.41C1949.2 1103.21 2365.81 1047.37 2334.69 633.661C2265.86 -281.414 1404.47 -144.507 1483.86 125.21C1631.42 626.489 1443.07 407.444 1123.66 818.922C804.244 1230.4 1184.77 1342.16 1609.45 1209.41Z" stroke="#D6375D" stroke-width="3"/>
<path opacity="0.505" d="M1605.54 1182.2C1937.3 1084.21 2342.99 1036.33 2319.09 633.838C2266.21 -256.421 1427.09 -136.578 1500.11 126.729C1635.81 616.097 1456.14 400.36 1139.46 795.312C822.783 1190.26 1190.83 1304.69 1605.54 1182.2Z" stroke="#D6375D" stroke-width="3"/>
<path opacity="0.5462" d="M1602.05 1155.69C1925.66 1065.63 2320.27 1025.36 2303.22 634.203C2265.5 -230.97 1448.96 -127.456 1515.83 129.31C1640.1 606.522 1468.96 394.31 1155.45 772.928C841.941 1151.55 1197.53 1268.28 1602.05 1155.69Z" stroke="#D6375D" stroke-width="3"/>
<path opacity="0.5875" d="M1598.95 1129.9C1914.24 1047.48 2297.65 1014.45 2287.09 634.748C2263.73 -205.091 1470.07 -117.162 1531.01 132.937C1644.26 597.756 1481.49 389.282 1171.59 751.767C861.683 1114.25 1204.84 1232.93 1598.95 1129.9Z" stroke="#D6375D" stroke-width="3"/>
<path opacity="0.6288" d="M1596.24 1104.82C1903.05 1029.76 2275.13 1003.6 2270.69 635.463C2260.87 -178.809 1490.38 -105.718 1545.62 137.592C1648.27 589.793 1493.71 385.268 1187.84 731.83C881.974 1078.39 1212.72 1198.64 1596.24 1104.82Z" stroke="#D6375D" stroke-width="3"/>
<path opacity="0.67" d="M1593.89 1080.46C1892.08 1012.48 2252.7 992.832 2254.02 636.346C2256.93 -152.148 1509.87 -93.1423 1559.63 143.263C1652.12 582.632 1505.6 382.261 1204.19 713.119C902.78 1043.98 1221.16 1165.45 1593.89 1080.46Z" stroke="#D6375D" stroke-width="3"/>
<path opacity="0.7113" d="M1591.89 1056.84C1881.3 995.633 2230.36 982.132 2237.07 637.388C2251.91 -125.135 1528.52 -79.4578 1573.04 149.933C1655.79 576.265 1517.15 380.248 1220.61 695.633C924.067 1011.02 1230.12 1133.35 1591.89 1056.84Z" stroke="#D6375D" stroke-width="3"/>
<path opacity="0.7525" d="M1590.21 1033.95C1870.72 979.232 2208.11 971.505 2219.84 638.582C2245.78 -97.7966 1546.29 -64.6875 1585.81 157.584C1659.26 570.685 1528.31 379.22 1237.06 679.369C945.8 979.519 1239.58 1102.35 1590.21 1033.95Z" stroke="#D6375D" stroke-width="3"/>
<path opacity="0.7937" d="M1588.85 1011.81C1860.32 963.28 2185.96 960.956 2202.33 639.922C2238.55 -70.1574 1563.18 -48.8508 1597.93 166.202C1662.51 565.889 1539.08 379.168 1253.51 664.329C967.944 949.49 1249.52 1072.47 1588.85 1011.81Z" stroke="#D6375D" stroke-width="3"/>
<path opacity="0.835" d="M1587.78 990.415C1850.09 947.778 2163.88 950.485 2184.54 641.402C2230.22 -42.2446 1579.15 -31.9722 1609.37 175.77C1665.53 561.868 1549.43 380.078 1269.95 650.508C990.464 920.938 1259.91 1043.71 1587.78 990.415Z" stroke="#D6375D" stroke-width="3"/>
<path opacity="0.8763" d="M1586.99 969.772C1840.01 932.726 2141.9 940.09 2166.45 643.01C2220.77 -14.0882 1594.18 -14.0784 1620.11 186.265C1668.29 558.612 1559.34 381.937 1286.33 637.901C1013.32 893.864 1270.71 1016.08 1586.99 969.772Z" stroke="#D6375D" stroke-width="3"/>
<path opacity="0.9175" d="M1586.45 949.894C1830.09 918.135 2119.99 929.78 2148.08 644.746C2210.21 14.2934 1608.26 4.81434 1630.13 197.677C1670.78 556.122 1568.79 384.74 1302.64 626.511C1036.49 868.281 1281.91 989.592 1586.45 949.894Z" stroke="#D6375D" stroke-width="3"/>
<path opacity="0.9588" d="M1586.15 930.779C1820.3 904.002 2098.17 919.554 2129.42 646.601C2198.53 42.8697 1621.35 24.6782 1639.41 209.985C1672.98 554.386 1577.76 388.471 1318.84 616.33C1059.93 844.19 1293.47 964.25 1586.15 930.779Z" stroke="#D6375D" stroke-width="3"/>
<path d="M1586.08 912.433C1810.64 890.331 2076.42 909.413 2110.46 648.567C2185.73 71.6144 1633.44 45.4887 1647.94 223.169C1674.88 553.395 1586.22 393.116 1334.91 607.355C1083.6 821.595 1305.37 940.061 1586.08 912.433Z" stroke="#D6375D" stroke-width="3"/>
<path d="M1586.2 894.859C1801.1 877.123 2054.76 899.358 2091.2 650.636C2171.81 100.499 1644.51 67.2192 1655.69 237.208C1676.46 553.14 1594.16 398.661 1350.82 599.579C1107.48 800.497 1317.58 917.029 1586.2 894.859Z" stroke="#D6375D" stroke-width="3"/>
<path d="M1586.52 878.062C1791.66 864.381 2033.16 889.392 2071.65 652.803C2156.76 129.502 1654.54 89.8476 1662.64 252.087C1677.7 553.616 1601.56 405.095 1366.54 592.998C1131.52 780.901 1330.08 895.163 1586.52 878.062Z" stroke="#D6375D" stroke-width="3"/>
<path d="M1586.99 862.045C1782.32 852.107 2011.64 879.517 2051.79 655.06C2140.59 158.593 1663.51 113.346 1668.78 267.783C1678.58 554.811 1608.39 412.402 1382.04 587.605C1155.69 762.808 1342.83 874.466 1586.99 862.045Z" stroke="#D6375D" stroke-width="3"/>
<path d="M1587.62 846.808C1773.06 840.301 1990.19 869.733 2031.63 657.398C2123.29 187.745 1671.39 137.688 1674.09 284.276C1679.09 556.716 1614.63 420.568 1397.29 583.392C1179.95 746.217 1355.81 854.941 1587.62 846.808Z" stroke="#D6375D" stroke-width="3"/>
<path d="M1588.37 832.357C1763.87 828.966 1968.8 860.043 2011.17 659.813C2104.87 216.934 1678.18 162.849 1678.54 301.546C1679.22 559.322 1620.28 429.579 1412.27 580.355C1204.27 731.13 1368.99 836.594 1588.37 832.357Z" stroke="#D6375D" stroke-width="3"/>
<path d="M1589.23 818.689C1754.74 818.1 1947.49 850.445 1990.4 662.293C2085.32 246.131 1683.85 188.798 1682.13 319.57C1678.94 562.617 1625.3 439.416 1426.96 578.48C1228.61 717.544 1382.34 819.425 1589.23 818.689Z" stroke="#D6375D" stroke-width="3"/>
<path d="M1590.18 805.811C1745.65 807.708 1926.23 840.944 1969.33 664.836C2064.65 275.311 1688.39 215.512 1684.84 338.33C1678.24 566.592 1629.68 450.068 1441.31 577.764C1252.95 705.46 1395.84 803.44 1590.18 805.811Z" stroke="#D6375D" stroke-width="3"/>
<path d="M1591.21 793.722C1736.61 797.789 1905.04 831.542 1947.94 667.434C2042.85 304.45 1691.77 242.963 1686.64 357.803C1677.1 571.239 1633.4 461.518 1455.32 578.197C1277.23 694.876 1409.45 788.64 1591.21 793.722Z" stroke="#D6375D" stroke-width="3"/>
<path d="M1592.29 782.424C1727.6 788.343 1883.9 822.239 1926.26 670.078C2019.94 333.52 1694 271.123 1687.53 377.968C1675.52 576.544 1636.44 473.749 1468.94 579.769C1301.44 685.789 1423.15 775.026 1592.29 782.424Z" stroke="#D6375D" stroke-width="3"/>
<path d="M1593.41 771.916C1718.6 779.37 1862.82 813.036 1904.26 672.761C1995.91 362.493 1695.04 299.962 1687.49 398.801C1673.47 582.496 1638.79 486.743 1482.16 582.468C1325.52 678.194 1436.92 762.598 1593.41 771.916Z" stroke="#D6375D" stroke-width="3"/>
<path d="M1594.54 762.196C1709.6 770.869 1841.79 803.934 1881.95 675.475C1970.77 391.343 1694.88 329.452 1686.51 420.278C1670.95 589.083 1640.43 500.483 1494.94 586.285C1349.46 672.086 1450.71 751.356 1594.54 762.196Z" stroke="#D6375D" stroke-width="3"/>
<path d="M1595.67 753.268C1700.6 762.842 1820.82 794.934 1859.33 678.214C1944.52 420.047 1693.52 359.566 1684.57 442.38C1667.93 596.294 1641.34 514.954 1507.27 591.208C1373.2 667.463 1464.51 741.301 1595.67 753.268Z" stroke="#D6375D" stroke-width="3"/>
<path d="M1596.78 745.129C1691.58 755.287 1799.89 786.039 1836.4 680.971C1917.16 448.576 1690.93 390.273 1681.65 465.082C1664.4 604.117 1641.5 530.136 1519.11 597.226C1396.73 664.316 1478.28 732.431 1596.78 745.129Z" stroke="#D6375D" stroke-width="3"/>
<path d="M1597.86 737.776C1682.53 748.201 1779.01 777.247 1813.16 683.736C1888.7 476.904 1687.11 421.543 1677.74 488.358C1660.34 612.537 1640.9 546.009 1530.45 604.324C1420 662.64 1492.01 724.744 1597.86 737.776Z" stroke="#D6375D" stroke-width="3"/>
<path d="M1598.87 731.208C1673.45 741.584 1758.17 768.559 1789.61 686.502C1859.15 505.006 1682.03 453.346 1672.84 512.186C1655.75 621.542 1639.53 562.556 1541.25 612.491C1442.97 662.425 1505.65 718.237 1598.87 731.208Z" stroke="#D6375D" stroke-width="3"/>
<path d="M1599.81 725.426C1664.31 735.439 1737.38 759.98 1765.75 689.266C1828.51 532.858 1675.7 485.656 1666.92 536.545C1650.62 631.123 1637.36 579.761 1551.49 621.715C1465.62 663.668 1519.18 712.91 1599.81 725.426Z" stroke="#D6375D" stroke-width="3"/>
<path d="M1600.65 720.426C1655.11 729.76 1716.62 751.507 1741.58 692.017C1796.79 560.432 1668.09 518.44 1659.99 561.406C1644.92 641.261 1634.39 597.602 1561.15 631.979C1487.91 666.357 1532.59 708.758 1600.65 720.426Z" stroke="#D6375D" stroke-width="3"/>
</g>
<ellipse cx="1562.32" cy="605.319" rx="81" ry="81" transform="rotate(-165.874 1562.32 605.319)" fill="#E2738E" fill-opacity="0.4"/>
<ellipse cx="1562.32" cy="605.319" rx="81" ry="81" transform="rotate(-165.874 1562.32 605.319)" fill="url(#paint0_linear_241_22365)" style="mix-blend-mode:soft-light"/>
<ellipse cx="1562.32" cy="605.319" rx="81" ry="81" transform="rotate(-165.874 1562.32 605.319)" fill="url(#paint1_linear_241_22365)" style="mix-blend-mode:soft-light"/>
<circle cx="1809.57" cy="503.574" r="70.5" transform="rotate(-165.874 1809.57 503.574)" fill="#E2738E" fill-opacity="0.4"/>
<circle cx="1809.57" cy="503.574" r="70.5" transform="rotate(-165.874 1809.57 503.574)" fill="url(#paint2_linear_241_22365)" style="mix-blend-mode:soft-light"/>
<circle cx="1809.57" cy="503.574" r="70.5" transform="rotate(-165.874 1809.57 503.574)" fill="url(#paint3_linear_241_22365)" style="mix-blend-mode:soft-light"/>
<circle cx="1685.71" cy="297.436" r="60.5" transform="rotate(-165.874 1685.71 297.436)" fill="#E2738E" fill-opacity="0.4"/>
<circle cx="1685.71" cy="297.436" r="60.5" transform="rotate(-165.874 1685.71 297.436)" fill="url(#paint4_linear_241_22365)" style="mix-blend-mode:soft-light"/>
<circle cx="1685.71" cy="297.436" r="60.5" transform="rotate(-165.874 1685.71 297.436)" fill="url(#paint5_linear_241_22365)" style="mix-blend-mode:soft-light"/>
<g opacity="0.7">
<path d="M-28.9228 -764.373C-547.901 -536.543 -247.959 -75.4796 -33.1152 126.573C613.299 597.511 812.2 22.5737 533.457 -354.657C254.715 -731.887 1220.8 -561.449 1173.28 -1117.86C1118.17 -1763.04 619.8 -1049.16 -28.9228 -764.373Z" stroke="#ECA2B4" stroke-width="3"/>
<path opacity="0.95875" d="M-9.34014 -747.49C-537.174 -535.5 -255.976 -65.643 -49.3976 142.787C577.664 632.994 799.589 64.4249 536.203 -321.009C272.817 -706.443 1231.46 -506.88 1206.36 -1064.39C1177.25 -1710.84 650.453 -1012.48 -9.34014 -747.49Z" stroke="#ECA2B4" stroke-width="3"/>
<path opacity="0.9175" d="M9.55015 -730.024C-526.497 -534.133 -264.385 -56.0549 -66.3236 158.498C540.621 667.378 785.301 105.869 537.592 -287.298C289.883 -680.466 1239.9 -452.022 1237.26 -1009.95C1234.2 -1656.89 679.609 -974.889 9.55015 -730.024Z" stroke="#ECA2B4" stroke-width="3"/>
<path opacity="0.87625" d="M27.7258 -711.998C-515.881 -532.444 -273.175 -46.7272 -83.8717 173.687C502.217 700.62 769.353 146.856 537.623 -253.567C305.893 -653.989 1246.14 -396.942 1265.96 -954.611C1288.95 -1601.25 707.234 -936.441 27.7258 -711.998Z" stroke="#ECA2B4" stroke-width="3"/>
<path opacity="0.835" d="M45.1648 -693.433C-505.339 -530.435 -282.335 -37.671 -102.021 188.336C462.497 732.68 751.764 187.335 536.295 -219.854C320.827 -627.044 1250.15 -341.706 1292.41 -898.436C1341.42 -1543.99 733.295 -897.182 45.1648 -693.433Z" stroke="#ECA2B4" stroke-width="3"/>
<path opacity="0.79375" d="M61.8457 -674.352C-494.885 -528.108 -291.855 -28.8975 -120.748 202.427C421.512 763.518 732.557 227.257 533.612 -186.203C334.667 -599.663 1251.94 -286.383 1316.59 -841.496C1391.55 -1485.17 757.759 -857.157 61.8457 -674.352Z" stroke="#ECA2B4" stroke-width="3"/>
<path opacity="0.7525" d="M77.7482 -654.778C-484.531 -525.466 -301.721 -20.4173 -140.032 215.943C379.31 793.098 711.754 266.574 529.575 -152.653C347.397 -571.88 1251.5 -231.04 1338.45 -783.858C1439.28 -1424.87 780.597 -816.417 77.7482 -654.778Z" stroke="#ECA2B4" stroke-width="3"/>
<path opacity="0.71125" d="M92.8531 -634.734C-474.289 -522.513 -311.923 -12.2408 -159.848 228.867C335.942 821.383 689.381 305.238 524.19 -119.245C359 -543.729 1248.83 -175.744 1357.99 -725.594C1484.56 -1363.17 801.781 -775.011 92.8531 -634.734Z" stroke="#ECA2B4" stroke-width="3"/>
<path opacity="0.67" d="M107.142 -614.246C-464.173 -519.251 -322.448 -4.37795 -180.172 241.184C291.463 848.339 665.465 343.201 517.464 -86.0213C369.463 -515.244 1243.94 -120.561 1375.16 -666.775C1527.33 -1300.13 821.285 -732.989 107.142 -614.246Z" stroke="#ECA2B4" stroke-width="3"/>
<path opacity="0.62875" d="M120.598 -593.338C-454.192 -515.686 -333.282 3.16188 -200.978 252.879C245.926 873.933 640.036 380.418 509.405 -53.0208C378.774 -486.46 1236.82 -65.5612 1389.96 -607.471C1567.53 -1235.84 839.087 -690.403 120.598 -593.338Z" stroke="#ECA2B4" stroke-width="3"/>
<path opacity="0.5875" d="M133.202 -572.035C-444.364 -511.82 -344.415 10.3692 -222.245 263.937C199.385 898.133 613.123 416.843 500.02 -20.2843C386.918 -457.411 1227.5 -10.8095 1402.36 -547.757C1605.12 -1170.37 855.161 -647.304 133.202 -572.035Z" stroke="#ECA2B4" stroke-width="3"/>
<path opacity="0.54625" d="M144.941 -550.364C-434.698 -507.66 -355.832 17.2352 -243.944 274.345C151.898 920.911 584.759 452.431 489.323 12.1482C393.888 -428.134 1215.98 43.6267 1412.35 -487.703C1640.05 -1103.8 869.49 -603.745 144.941 -550.364Z" stroke="#ECA2B4" stroke-width="3"/>
<path opacity="0.505" d="M155.802 -528.351C-425.203 -503.21 -367.517 23.7517 -266.048 284.09C103.523 942.238 554.981 487.139 477.329 44.2374C399.676 -398.664 1202.28 97.6812 1419.92 -427.384C1672.28 -1036.22 882.058 -559.779 155.802 -528.351Z" stroke="#ECA2B4" stroke-width="3"/>
<path opacity="0.46375" d="M165.772 -506.023C-415.891 -498.475 -379.454 29.9107 -288.528 293.16C54.3225 962.088 523.826 520.925 464.052 75.9441C404.277 -369.037 1186.4 151.288 1425.05 -366.872C1701.77 -967.7 892.851 -515.459 165.772 -506.023Z" stroke="#ECA2B4" stroke-width="3"/>
<path opacity="0.4225" d="M174.832 -483.407C-406.781 -493.461 -391.637 35.7048 -311.364 301.545C4.34761 980.438 491.326 553.748 449.501 107.23C407.677 -339.289 1168.38 204.382 1427.74 -306.243C1728.48 -898.333 901.848 -470.84 174.832 -483.407Z" stroke="#ECA2B4" stroke-width="3"/>
<path opacity="0.38125" d="M182.981 -460.531C-397.872 -488.175 -404.042 41.1268 -334.519 309.233C-46.3307 997.265 457.529 585.568 433.705 138.056C409.882 -309.455 1148.24 256.899 1428 -245.568C1752.39 -828.199 909.048 -425.976 182.981 -460.531Z" stroke="#ECA2B4" stroke-width="3"/>
<path opacity="0.34" d="M190.2 -437.422C-389.187 -482.623 -416.661 46.1701 -357.975 316.217C-97.6605 1012.55 422.466 616.346 416.673 168.386C410.881 -279.574 1125.98 308.774 1425.8 -184.923C1773.45 -757.385 914.433 -380.921 190.2 -437.422Z" stroke="#ECA2B4" stroke-width="3"/>
<path opacity="0.29875" d="M196.486 -414.109C-380.729 -476.811 -429.474 50.8287 -381.695 322.486C-149.572 1026.27 386.188 646.044 398.433 198.182C410.677 -249.68 1101.66 359.944 1421.17 -124.381C1791.66 -685.976 918.004 -335.731 196.486 -414.109Z" stroke="#ECA2B4" stroke-width="3"/>
<path opacity="0.2575" d="M201.83 -390.62C-372.509 -470.747 -442.466 55.0968 -405.653 328.034C-202.004 1038.41 348.737 674.627 379.004 227.408C409.271 -219.811 1075.29 410.347 1414.1 -64.0165C1806.97 -614.06 919.753 -290.461 201.83 -390.62Z" stroke="#ECA2B4" stroke-width="3"/>
<path opacity="0.21625" d="M206.226 -366.983C-364.537 -464.437 -455.621 58.9691 -429.818 332.854C-254.892 1048.96 310.159 702.059 358.412 256.029C406.664 -190.002 1046.91 459.922 1404.61 -3.90245C1819.39 -541.725 919.679 -245.165 206.226 -366.983Z" stroke="#ECA2B4" stroke-width="3"/>
<path opacity="0.175" d="M209.665 -343.228C-356.827 -457.891 -468.927 62.4411 -454.165 336.94C-308.174 1057.9 270.497 728.308 336.677 284.009C402.857 -160.291 1016.55 508.608 1392.71 55.888C1828.88 -469.059 917.78 -199.899 209.665 -343.228Z" stroke="#ECA2B4" stroke-width="3"/>
<path opacity="0.13375" d="M212.147 -319.383C-349.384 -451.115 -482.363 65.5085 -478.661 340.287C-361.783 1065.23 229.805 753.34 313.831 311.314C397.857 -130.713 984.245 556.345 1378.4 115.282C1835.44 -396.149 914.061 -154.718 212.147 -319.383Z" stroke="#ECA2B4" stroke-width="3"/>
<path opacity="0.0925" d="M213.668 -295.478C-342.217 -444.118 -495.914 68.1675 -503.276 342.89C-415.654 1070.92 188.129 777.126 289.899 337.911C391.669 -101.304 950.041 603.076 1361.71 174.207C1839.06 -323.085 908.525 -109.677 213.668 -295.478Z" stroke="#ECA2B4" stroke-width="3"/>
<path opacity="0.05125" d="M214.225 -271.541C-335.337 -436.909 -509.564 70.4149 -527.981 344.748C-469.722 1074.99 145.521 799.637 264.911 363.769C384.301 -72.0997 913.975 648.744 1342.66 232.591C1839.74 -249.956 901.179 -64.8309 214.225 -271.541Z" stroke="#ECA2B4" stroke-width="3"/>
<path opacity="0.01" d="M213.819 -247.602C-328.752 -429.496 -523.296 72.2477 -552.746 345.856C-523.92 1077.41 102.033 820.845 238.897 388.854C375.761 -43.1369 876.094 693.293 1321.27 290.362C1837.47 -176.852 892.032 -20.2347 213.819 -247.602Z" stroke="#ECA2B4" stroke-width="3"/>
</g>
</g>
<defs>
<linearGradient id="paint0_linear_241_22365" x1="1562.32" y1="524.319" x2="1562.32" y2="686.319" gradientUnits="userSpaceOnUse">
<stop/>
<stop offset="1" stop-color="#D9D9D9" stop-opacity="0"/>
</linearGradient>
<linearGradient id="paint1_linear_241_22365" x1="1562.32" y1="524.319" x2="1562.32" y2="686.319" gradientUnits="userSpaceOnUse">
<stop stop-color="#CB448D"/>
<stop offset="1" stop-color="#D9D9D9" stop-opacity="0"/>
</linearGradient>
<linearGradient id="paint2_linear_241_22365" x1="1809.57" y1="433.074" x2="1809.57" y2="574.074" gradientUnits="userSpaceOnUse">
<stop/>
<stop offset="1" stop-color="#D9D9D9" stop-opacity="0"/>
</linearGradient>
<linearGradient id="paint3_linear_241_22365" x1="1809.57" y1="433.074" x2="1809.57" y2="574.074" gradientUnits="userSpaceOnUse">
<stop stop-color="#CB448D"/>
<stop offset="1" stop-color="#D9D9D9" stop-opacity="0"/>
</linearGradient>
<linearGradient id="paint4_linear_241_22365" x1="1685.71" y1="236.936" x2="1685.71" y2="357.936" gradientUnits="userSpaceOnUse">
<stop/>
<stop offset="1" stop-color="#D9D9D9" stop-opacity="0"/>
</linearGradient>
<linearGradient id="paint5_linear_241_22365" x1="1685.71" y1="236.936" x2="1685.71" y2="357.936" gradientUnits="userSpaceOnUse">
<stop stop-color="#CB448D"/>
<stop offset="1" stop-color="#D9D9D9" stop-opacity="0"/>
</linearGradient>
<clipPath id="clip0_241_22365">
<rect width="1920" height="960" rx="20" fill="white"/>
</clipPath>
</defs>
</svg>
