<svg width="1567" height="960" viewBox="0 0 1567 960" fill="none" xmlns="http://www.w3.org/2000/svg">
<g opacity="0.1">
<g opacity="0.6">
<path opacity="0.0512" d="M1322.06 1518.01C1730.72 1315.25 2246.8 1160.79 2124.22 643.439C1853.09 -500.858 790.364 -154.315 945.087 171.076C1232.65 775.828 950.202 536.487 628.664 1121.51C307.126 1706.54 811.228 1771.45 1322.06 1518.01Z" stroke="#D6375D" stroke-width="3"/>
<path opacity="0.0925" d="M1313.09 1484.31C1715.84 1292.33 2222.91 1149.23 2111.01 641.425C1863.5 -481.776 818.909 -159.268 965.2 161.32C1237.09 757.147 964.571 518.738 641.121 1085.89C317.672 1653.04 809.637 1724.28 1313.09 1484.31Z" stroke="#D6375D" stroke-width="3"/>
<path opacity="0.1338" d="M1304.69 1451.21C1701.31 1269.78 2199.12 1137.72 2097.57 639.655C1872.95 -461.995 846.99 -162.864 985.04 152.738C1241.61 739.299 978.92 502.076 654.041 1051.43C329.162 1600.79 808.918 1678 1304.69 1451.21Z" stroke="#D6375D" stroke-width="3"/>
<path opacity="0.175" d="M1296.86 1418.73C1687.11 1247.59 2175.45 1126.25 2083.91 638.127C1881.44 -441.536 874.579 -165.112 1004.58 145.327C1246.2 722.29 993.225 486.501 667.395 1018.17C341.565 1549.84 809.049 1632.65 1296.86 1418.73Z" stroke="#D6375D" stroke-width="3"/>
<path opacity="0.2163" d="M1289.57 1386.87C1673.23 1225.79 2151.9 1114.83 2070.03 636.833C1888.96 -420.425 901.645 -166.031 1023.8 139.07C1250.82 706.114 1007.46 472.005 681.155 986.09C354.849 1500.18 810.006 1588.23 1289.57 1386.87Z" stroke="#D6375D" stroke-width="3"/>
<path opacity="0.2575" d="M1282.82 1355.65C1659.66 1204.36 2128.45 1103.45 2055.91 635.768C1895.48 -398.685 928.159 -165.634 1042.66 133.961C1255.47 690.772 1021.6 458.586 695.292 955.21C368.981 1451.83 811.766 1544.75 1282.82 1355.65Z" stroke="#D6375D" stroke-width="3"/>
<path opacity="0.2988" d="M1276.58 1325.07C1646.4 1183.33 2105.11 1092.13 2041.56 634.926C1901 -376.34 954.094 -163.938 1061.15 129.988C1260.13 676.262 1035.63 446.239 709.78 925.531C383.932 1404.82 814.305 1502.24 1276.58 1325.07Z" stroke="#D6375D" stroke-width="3"/>
<path opacity="0.34" d="M1270.84 1295.15C1633.43 1162.69 2081.88 1080.85 2026.97 634.299C1905.51 -353.417 979.421 -160.961 1079.24 127.137C1264.77 662.58 1049.51 434.956 724.589 897.057C399.666 1359.16 817.6 1460.72 1270.84 1295.15Z" stroke="#D6375D" stroke-width="3"/>
<path opacity="0.3812" d="M1265.58 1265.89C1620.75 1142.45 2058.75 1069.64 2012.13 633.884C1909 -329.938 1004.11 -156.717 1096.91 125.4C1269.38 649.727 1063.23 424.735 739.69 869.797C416.152 1314.86 821.624 1420.18 1265.58 1265.89Z" stroke="#D6375D" stroke-width="3"/>
<path opacity="0.4225" d="M1260.79 1237.31C1608.34 1122.63 2035.73 1058.48 1997.03 633.674C1911.45 -305.928 1028.14 -151.226 1114.12 124.762C1273.94 637.698 1076.75 415.567 755.055 843.751C433.355 1271.93 826.355 1380.66 1260.79 1237.31Z" stroke="#D6375D" stroke-width="3"/>
<path opacity="0.4638" d="M1256.45 1209.41C1596.2 1103.21 2012.81 1047.37 1981.69 633.661C1912.86 -281.414 1051.47 -144.507 1130.86 125.21C1278.42 626.489 1090.07 407.444 770.655 818.922C451.244 1230.4 831.766 1342.16 1256.45 1209.41Z" stroke="#D6375D" stroke-width="3"/>
<path opacity="0.505" d="M1252.54 1182.2C1584.3 1084.21 1989.99 1036.33 1966.09 633.838C1913.21 -256.421 1074.09 -136.578 1147.11 126.729C1282.81 616.097 1103.14 400.36 786.463 795.312C469.783 1190.26 837.834 1304.69 1252.54 1182.2Z" stroke="#D6375D" stroke-width="3"/>
<path opacity="0.5462" d="M1249.05 1155.69C1572.66 1065.63 1967.27 1025.36 1950.22 634.203C1912.5 -230.97 1095.96 -127.456 1162.83 129.31C1287.1 606.522 1115.96 394.31 802.449 772.928C488.941 1151.55 844.533 1268.28 1249.05 1155.69Z" stroke="#D6375D" stroke-width="3"/>
<path opacity="0.5875" d="M1245.95 1129.9C1561.24 1047.48 1944.65 1014.45 1934.09 634.748C1910.73 -205.091 1117.07 -117.162 1178.01 132.937C1291.26 597.756 1128.49 389.282 818.585 751.767C508.683 1114.25 851.837 1232.93 1245.95 1129.9Z" stroke="#D6375D" stroke-width="3"/>
<path opacity="0.6288" d="M1243.24 1104.82C1550.05 1029.76 1922.13 1003.6 1917.69 635.463C1907.87 -178.809 1137.38 -105.718 1192.62 137.592C1295.27 589.793 1140.71 385.268 834.842 731.83C528.974 1078.39 859.719 1198.64 1243.24 1104.82Z" stroke="#D6375D" stroke-width="3"/>
<path opacity="0.67" d="M1240.89 1080.46C1539.08 1012.48 1899.7 992.832 1901.02 636.346C1903.93 -152.148 1156.87 -93.1423 1206.63 143.263C1299.12 582.632 1152.6 382.261 851.192 713.119C549.78 1043.98 868.155 1165.45 1240.89 1080.46Z" stroke="#D6375D" stroke-width="3"/>
<path opacity="0.7113" d="M1238.89 1056.84C1528.3 995.633 1877.36 982.132 1884.07 637.388C1898.91 -125.135 1175.52 -79.4578 1220.04 149.933C1302.79 576.265 1164.15 380.248 867.607 695.633C571.067 1011.02 877.119 1133.35 1238.89 1056.84Z" stroke="#D6375D" stroke-width="3"/>
<path opacity="0.7525" d="M1237.21 1033.95C1517.72 979.232 1855.11 971.505 1866.84 638.582C1892.78 -97.7966 1193.29 -64.6875 1232.81 157.584C1306.26 570.685 1175.31 379.22 884.056 679.369C592.8 979.519 886.583 1102.35 1237.21 1033.95Z" stroke="#D6375D" stroke-width="3"/>
<path opacity="0.7937" d="M1235.85 1011.81C1507.32 963.28 1832.96 960.956 1849.33 639.922C1885.55 -70.1574 1210.18 -48.8508 1244.93 166.202C1309.51 565.889 1186.08 379.168 900.513 664.329C614.944 949.49 896.52 1072.47 1235.85 1011.81Z" stroke="#D6375D" stroke-width="3"/>
<path opacity="0.835" d="M1234.78 990.415C1497.09 947.778 1810.88 950.485 1831.54 641.402C1877.22 -42.2446 1226.15 -31.9722 1256.37 175.77C1312.53 561.868 1196.43 380.078 916.949 650.508C637.464 920.938 906.905 1043.71 1234.78 990.415Z" stroke="#D6375D" stroke-width="3"/>
<path opacity="0.8763" d="M1233.99 969.772C1487.01 932.726 1788.9 940.09 1813.45 643.01C1867.77 -14.0882 1241.18 -14.0784 1267.11 186.265C1315.29 558.612 1206.34 381.937 933.334 637.901C660.324 893.864 917.708 1016.08 1233.99 969.772Z" stroke="#D6375D" stroke-width="3"/>
<path opacity="0.9175" d="M1233.45 949.894C1477.09 918.135 1766.99 929.78 1795.08 644.746C1857.21 14.2934 1255.26 4.81434 1277.13 197.677C1317.78 556.122 1215.79 384.74 949.643 626.511C683.492 868.281 928.906 989.592 1233.45 949.894Z" stroke="#D6375D" stroke-width="3"/>
<path opacity="0.9588" d="M1233.15 930.779C1467.3 904.002 1745.17 919.554 1776.42 646.601C1845.53 42.8697 1268.35 24.6782 1286.41 209.985C1319.98 554.386 1224.76 388.471 965.845 616.33C706.93 844.19 940.47 964.25 1233.15 930.779Z" stroke="#D6375D" stroke-width="3"/>
<path d="M1233.08 912.433C1457.64 890.331 1723.42 909.413 1757.46 648.567C1832.73 71.6144 1280.44 45.4887 1294.94 223.169C1321.88 553.395 1233.22 393.116 981.913 607.355C730.604 821.595 952.372 940.061 1233.08 912.433Z" stroke="#D6375D" stroke-width="3"/>
<path d="M1233.2 894.859C1448.1 877.123 1701.76 899.358 1738.2 650.636C1818.81 100.499 1291.51 67.2192 1302.69 237.208C1323.46 553.14 1241.16 398.661 997.819 599.579C754.477 800.497 964.584 917.029 1233.2 894.859Z" stroke="#D6375D" stroke-width="3"/>
<path d="M1233.52 878.062C1438.66 864.381 1680.16 889.392 1718.65 652.803C1803.76 129.502 1301.54 89.8476 1309.64 252.087C1324.7 553.616 1248.56 405.095 1013.54 592.998C778.517 780.901 977.081 895.163 1233.52 878.062Z" stroke="#D6375D" stroke-width="3"/>
<path d="M1233.99 862.045C1429.32 852.107 1658.64 879.517 1698.79 655.06C1787.59 158.593 1310.51 113.346 1315.78 267.783C1325.58 554.811 1255.39 412.402 1029.04 587.605C802.686 762.808 989.833 874.466 1233.99 862.045Z" stroke="#D6375D" stroke-width="3"/>
<path d="M1234.62 846.808C1420.06 840.301 1637.19 869.733 1678.63 657.398C1770.29 187.745 1318.39 137.688 1321.09 284.276C1326.09 556.716 1261.63 420.568 1044.29 583.392C826.948 746.217 1002.81 854.941 1234.62 846.808Z" stroke="#D6375D" stroke-width="3"/>
<path d="M1235.37 832.357C1410.87 828.966 1615.8 860.043 1658.17 659.813C1751.87 216.934 1325.18 162.849 1325.54 301.546C1326.22 559.322 1267.28 429.579 1059.27 580.355C851.269 731.13 1015.99 836.594 1235.37 832.357Z" stroke="#D6375D" stroke-width="3"/>
<path d="M1236.23 818.689C1401.74 818.1 1594.49 850.445 1637.4 662.293C1732.32 246.131 1330.85 188.798 1329.13 319.57C1325.94 562.617 1272.3 439.416 1073.96 578.48C875.614 717.544 1029.34 819.425 1236.23 818.689Z" stroke="#D6375D" stroke-width="3"/>
<path d="M1237.18 805.811C1392.65 807.708 1573.23 840.944 1616.33 664.836C1711.65 275.311 1335.39 215.512 1331.84 338.33C1325.24 566.592 1276.68 450.068 1088.31 577.764C899.946 705.46 1042.84 803.44 1237.18 805.811Z" stroke="#D6375D" stroke-width="3"/>
<path d="M1238.21 793.722C1383.61 797.789 1552.04 831.542 1594.94 667.434C1689.85 304.45 1338.77 242.963 1333.64 357.803C1324.1 571.239 1280.4 461.518 1102.32 578.197C924.232 694.876 1056.45 788.64 1238.21 793.722Z" stroke="#D6375D" stroke-width="3"/>
<path d="M1239.29 782.424C1374.6 788.343 1530.9 822.239 1573.26 670.078C1666.94 333.52 1341 271.123 1334.53 377.968C1322.52 576.544 1283.44 473.749 1115.94 579.769C948.436 685.789 1070.15 775.026 1239.29 782.424Z" stroke="#D6375D" stroke-width="3"/>
<path d="M1240.41 771.916C1365.6 779.37 1509.82 813.036 1551.26 672.761C1642.91 362.493 1342.04 299.962 1334.49 398.801C1320.47 582.496 1285.79 486.743 1129.16 582.468C972.522 678.194 1083.92 762.598 1240.41 771.916Z" stroke="#D6375D" stroke-width="3"/>
<path d="M1241.54 762.196C1356.6 770.869 1488.79 803.934 1528.95 675.475C1617.77 391.343 1341.88 329.452 1333.51 420.278C1317.95 589.083 1287.43 500.483 1141.94 586.285C996.457 672.086 1097.71 751.356 1241.54 762.196Z" stroke="#D6375D" stroke-width="3"/>
<path d="M1242.67 753.268C1347.6 762.842 1467.82 794.934 1506.33 678.214C1591.52 420.047 1340.52 359.566 1331.57 442.38C1314.93 596.294 1288.34 514.954 1154.27 591.208C1020.2 667.463 1111.51 741.301 1242.67 753.268Z" stroke="#D6375D" stroke-width="3"/>
<path d="M1243.78 745.129C1338.58 755.287 1446.89 786.039 1483.4 680.971C1564.16 448.576 1337.93 390.273 1328.65 465.082C1311.4 604.117 1288.5 530.136 1166.11 597.226C1043.73 664.316 1125.28 732.431 1243.78 745.129Z" stroke="#D6375D" stroke-width="3"/>
<path d="M1244.86 737.776C1329.53 748.201 1426.01 777.247 1460.16 683.736C1535.7 476.904 1334.11 421.543 1324.74 488.358C1307.34 612.537 1287.9 546.009 1177.45 604.324C1067 662.64 1139.01 724.744 1244.86 737.776Z" stroke="#D6375D" stroke-width="3"/>
<path d="M1245.87 731.208C1320.45 741.584 1405.17 768.559 1436.61 686.502C1506.15 505.006 1329.03 453.346 1319.84 512.186C1302.75 621.542 1286.53 562.556 1188.25 612.491C1089.97 662.425 1152.65 718.237 1245.87 731.208Z" stroke="#D6375D" stroke-width="3"/>
<path d="M1246.81 725.426C1311.31 735.439 1384.38 759.98 1412.75 689.266C1475.51 532.858 1322.7 485.656 1313.92 536.545C1297.62 631.123 1284.36 579.761 1198.49 621.715C1112.62 663.668 1166.18 712.91 1246.81 725.426Z" stroke="#D6375D" stroke-width="3"/>
<path d="M1247.65 720.426C1302.11 729.76 1363.62 751.507 1388.58 692.017C1443.79 560.432 1315.09 518.44 1306.99 561.406C1291.92 641.261 1281.39 597.602 1208.15 631.979C1134.91 666.357 1179.59 708.758 1247.65 720.426Z" stroke="#D6375D" stroke-width="3"/>
</g>
<ellipse cx="1209.32" cy="605.319" rx="81" ry="81" transform="rotate(-165.874 1209.32 605.319)" fill="#E2738E" fill-opacity="0.4"/>
<ellipse cx="1209.32" cy="605.319" rx="81" ry="81" transform="rotate(-165.874 1209.32 605.319)" fill="url(#paint0_linear_533_5600)" style="mix-blend-mode:soft-light"/>
<ellipse cx="1209.32" cy="605.319" rx="81" ry="81" transform="rotate(-165.874 1209.32 605.319)" fill="url(#paint1_linear_533_5600)" style="mix-blend-mode:soft-light"/>
<circle cx="1456.57" cy="503.574" r="70.5" transform="rotate(-165.874 1456.57 503.574)" fill="#E2738E" fill-opacity="0.4"/>
<circle cx="1456.57" cy="503.574" r="70.5" transform="rotate(-165.874 1456.57 503.574)" fill="url(#paint2_linear_533_5600)" style="mix-blend-mode:soft-light"/>
<circle cx="1456.57" cy="503.574" r="70.5" transform="rotate(-165.874 1456.57 503.574)" fill="url(#paint3_linear_533_5600)" style="mix-blend-mode:soft-light"/>
<circle cx="1332.71" cy="297.436" r="60.5" transform="rotate(-165.874 1332.71 297.436)" fill="#E2738E" fill-opacity="0.4"/>
<circle cx="1332.71" cy="297.436" r="60.5" transform="rotate(-165.874 1332.71 297.436)" fill="url(#paint4_linear_533_5600)" style="mix-blend-mode:soft-light"/>
<circle cx="1332.71" cy="297.436" r="60.5" transform="rotate(-165.874 1332.71 297.436)" fill="url(#paint5_linear_533_5600)" style="mix-blend-mode:soft-light"/>
</g>
<defs>
<linearGradient id="paint0_linear_533_5600" x1="1209.32" y1="524.319" x2="1209.32" y2="686.319" gradientUnits="userSpaceOnUse">
<stop/>
<stop offset="1" stop-color="#D9D9D9" stop-opacity="0"/>
</linearGradient>
<linearGradient id="paint1_linear_533_5600" x1="1209.32" y1="524.319" x2="1209.32" y2="686.319" gradientUnits="userSpaceOnUse">
<stop stop-color="#CB448D"/>
<stop offset="1" stop-color="#D9D9D9" stop-opacity="0"/>
</linearGradient>
<linearGradient id="paint2_linear_533_5600" x1="1456.57" y1="433.074" x2="1456.57" y2="574.074" gradientUnits="userSpaceOnUse">
<stop/>
<stop offset="1" stop-color="#D9D9D9" stop-opacity="0"/>
</linearGradient>
<linearGradient id="paint3_linear_533_5600" x1="1456.57" y1="433.074" x2="1456.57" y2="574.074" gradientUnits="userSpaceOnUse">
<stop stop-color="#CB448D"/>
<stop offset="1" stop-color="#D9D9D9" stop-opacity="0"/>
</linearGradient>
<linearGradient id="paint4_linear_533_5600" x1="1332.71" y1="236.936" x2="1332.71" y2="357.936" gradientUnits="userSpaceOnUse">
<stop/>
<stop offset="1" stop-color="#D9D9D9" stop-opacity="0"/>
</linearGradient>
<linearGradient id="paint5_linear_533_5600" x1="1332.71" y1="236.936" x2="1332.71" y2="357.936" gradientUnits="userSpaceOnUse">
<stop stop-color="#CB448D"/>
<stop offset="1" stop-color="#D9D9D9" stop-opacity="0"/>
</linearGradient>
</defs>
</svg>
